<svg xmlns="http://www.w3.org/2000/svg" viewBox="0 0 512 512">
  <rect width="512" height="512" rx="112" fill="#4b235f"/>
  <circle cx="256" cy="256" r="156" fill="#fff8f2"/>
  <path d="M256 98l34 104 109 1-88 64 33 105-88-63-89 63 34-105-88-64 109-1z" fill="#f4c95d"/>
  <circle cx="256" cy="256" r="54" fill="#a855f7" opacity=".9"/>
  <path d="M182 154c-28 20-46 54-46 92 0 69 56 125 125 125 38 0 72-17 95-44-27 59-87 100-156 100-95 0-172-77-172-172 0-46 18-87 47-118 30-31 70-50 115-53-3 21-6 43-8 70z" fill="#f472b6" opacity=".72"/>
</svg>
